<svg width="146" height="405" viewBox="0 0 146 405" fill="none" xmlns="http://www.w3.org/2000/svg">
<path d="M8.01367 400V191C8.01367 191 44.9126 222.77 71.4492 223.5C99.4965 224.271 139.014 191 139.014 191V400H8.01367Z" fill="black" stroke="black" stroke-width="10"/>
<path d="M26.0132 75C37.6248 51.3412 60.5132 17 60.5132 17V111.5C60.5132 111.5 60.4061 130.849 68.5132 138C81.4469 149.408 86.0102 148.728 99.5137 138C111.523 128.459 115.014 82 115.014 82C115.014 82 144.365 129.404 140.014 153.5C136.308 174.017 135.88 176.254 118.014 187C93.5297 201.726 82.7064 207.266 55.5132 198.5C22.6727 187.914 4.43798 160.5 5.01321 126C5.37229 104.464 16.5233 94.3358 26.0132 75Z" fill="black" stroke="black" stroke-width="10"/>
</svg>
