<svg width="147" height="405" viewBox="0 0 147 405" fill="none" xmlns="http://www.w3.org/2000/svg">
<path d="M9 400V191C9 191 45.8989 222.77 72.4355 223.5C100.483 224.271 140 191 140 191V400H9Z" stroke="black" stroke-width="10"/>
<path d="M26.9995 75C38.6111 51.3412 61.4995 17 61.4995 17V111.5C61.4995 111.5 61.3925 130.849 69.4995 138C82.4333 149.408 86.9965 148.728 100.5 138C112.509 128.459 116 82 116 82C116 82 145.352 129.404 141 153.5C137.295 174.017 136.867 176.254 119 187C94.516 201.726 83.6927 207.266 56.4995 198.5C23.659 187.914 5.42431 160.5 5.99954 126C6.35862 104.464 17.5096 94.3358 26.9995 75Z" stroke="black" stroke-width="10"/>
</svg>
